# xmcd CD database file
#
# Track frame offsets:
#	150
#	14938
#	49004
#	68030
#	89703
#	126010
#	148669
#	176621
#	204067
#	240562
#	272411
#
# Disc length: 4077 seconds
#
# Revision: 0
# Processed by: cddbd v1.5.2PL0 Copyright (c) Steve Scherf et al.
# Submitted via: CDex 1.51
#
DISCID=9a0feb0b
DTITLE=Wishbone Ash - Gold Dates CD 2
DYEAR=2004
DGENRE=Blues
TTITLE0=Real Guitars Have Wings
TTITLE1=The King Will Come
TTITLE2=Cosmic Jazz
TTITLE3=Keeper Of The Light
TTITLE4=Why Don't We ?
TTITLE5=Ancient Remedy
TTITLE6=Persephone
TTITLE7=Jailbait
TTITLE8=Blowin' Free
TTITLE9=Time Was
TTITLE10=Bad Weather Blues
EXTD=YEAR: 2004
EXTT0=
EXTT1=
EXTT2=
EXTT3=
EXTT4=
EXTT5=
EXTT6=
EXTT7=
EXTT8=
EXTT9=
EXTT10=
PLAYORDER=
